<?xml version="1.0" encoding="UTF-8"?>
<svg width="372px" height="82px" viewBox="0 0 372 82" version="1.1" xmlns="http://www.w3.org/2000/svg" xmlns:xlink="http://www.w3.org/1999/xlink">
    <!-- Generator: Sketch 47.1 (45422) - http://www.bohemiancoding.com/sketch -->
    <title>2-violet-back</title>
    <desc>Created with Sketch.</desc>
    <defs></defs>
    <g id="Page-1" stroke="none" stroke-width="1" fill="none" fill-rule="evenodd">
        <g id="2-violet-back" fill-rule="nonzero">
            <g id="Group">
                <g id="XMLID_216_" fill="#ffffff">
                    <g id="XMLID_234_" transform="translate(31.000000, 0.000000)">
                        <path d="M46.5,57.2 L46.5,57.2 L46.5,57.2 C42.3,56 37.2,54 35,49.9 L24.6,29.7 C22.5,25.9 22.9,20.7 24.1,16 L24.1,16 L24.1,16 C25.9,9.6 22,2.9 15.5,1.2 C9.1,-0.6 2.4,3.3 0.7,9.8 C-1.1,16.2 2.8,22.9 9.3,24.6 L9.4,24.6 C13.6,25.8 18.6,27.8 20.8,31.9 L31.3,52 C33.4,55.8 33,61 31.8,65.7 L31.8,65.7 L31.8,65.7 C30,72.1 33.9,78.8 40.4,80.5 C46.8,82.3 53.5,78.4 55.2,71.9 C56.9,65.5 52.9,59 46.5,57.2 Z" id="XMLID_235_"></path>
                    </g>
                    <path d="M28.4,39.7 L21.1,50 C18.7,54 13.7,56.1 9.6,57.3 L9.6,57.3 L9.6,57.3 C3.2,59.1 -0.6,65.6 1,72.1 C2.8,78.5 9.3,82.3 15.8,80.7 C22.2,78.9 26,72.4 24.4,65.9 L24.4,65.9 L24.4,65.9 C23.2,61.4 22.7,56 24.9,52.2 L30.4,40.9 C30.9,39.5 29.2,38.5 28.4,39.7 Z" id="XMLID_233_"></path>
                </g>
                <g id="XMLID_1_" transform="translate(116.000000, 15.000000)" fill="#FFFFFF">
                    <path d="M39.8,0.6 C38.8,0.6 38,1.1 37.4,1.8 L5,43.2 C4.3,44.3 3.3,45.1 2.3,45.7 L0.9,46.5 C0.5,47 0.9,47.2 1.5,47.2 L4.1,47.2 C5.2,47.2 6.2,46.7 7,45.9 L16.5,33.8 C16.6,33.6 17,33.4 17.2,33.4 L39.3,33.4 C39.8,33.4 40.3,33.8 40.3,34.4 L40.3,46 C40.3,46.7 40.9,47.4 41.7,47.4 C42.4,47.4 43.1,46.8 43.1,46 L43.1,3.6 C42.9,1.9 41.5,0.6 39.8,0.6 Z M40.2,29.3 C40.2,29.8 39.8,30.3 39.2,30.3 L20.4,30.3 C19.7,30.3 19.2,29.5 19.7,28.9 L38.3,5 C39.1,3.9 40.1,4.4 40.1,5.7 L40.1,29.3 L40.2,29.3 L40.2,29.3 Z" id="XMLID_9_"></path>
                    <path d="M65.6,47.2 L66,47.2 C66.7,47.2 67.4,46.6 67.4,45.8 L67.4,1.9 C67.4,1.2 66.8,0.5 66,0.5 L65.6,0.5 C64.9,0.5 64.2,1.1 64.2,1.9 L64.2,45.7 C64.1,46.6 64.8,47.2 65.6,47.2 Z" id="XMLID_8_"></path>
                    <path d="M100.3,12.4 C95.7,12.4 92.2,13 90.2,14.1 C88.2,15.2 86.9,16.8 86.4,19.1 C85.8,21.5 85.6,25.2 85.6,30.2 C85.6,35.2 86,39 86.7,41.4 C87.4,43.7 88.7,45.3 90.7,46.3 C92.8,47.4 96.2,47.8 100.7,47.8 C103,47.8 105.2,47.7 107.5,47.6 C108.3,47.6 109,47.5 109.6,47.4 C111.3,47.3 112.5,45.9 112.5,44.3 L112.5,44.3 C111.1,44.5 109.3,44.7 107.5,44.8 C105.4,44.9 103.3,45 101.5,45 C97.6,45 94.5,44.6 92.9,43.9 C91.1,43.2 89.9,41.9 89.3,40 C88.9,38.7 88.7,36.9 88.6,34.5 C88.6,33.9 88.6,32.7 88.6,31.9 C88.6,31.4 89,30.9 89.6,30.9 L109.2,30.9 C111.6,30.9 113.5,28.2 113.5,26 C113.5,22.7 113.3,18.6 111,16 C107.8,12.4 104.5,12.4 100.3,12.4 Z M110.5,25.5 C110.5,27 109.3,28.2 107.8,28.2 L89.3,28.2 C88.8,28.2 88.3,27.7 88.3,27.2 C88.3,24.9 88.4,21.2 88.9,19.9 C89.4,18.1 90.8,16.7 92.5,16 C94,15.4 96.5,15 100,15 C102.9,15 105,15.2 106.3,15.8 C107.7,16.4 108.8,17.6 109.5,19.3 C110.2,21 110.5,22.3 110.5,25.8 L110.5,25.5 L110.5,25.5 Z" id="XMLID_7_"></path>
                    <path d="M134.1,21.8 L134.1,16.7 C134.1,16.2 133.7,15.7 133.1,15.7 L128.5,15.7 L128.1,15.7 C127.3,15.7 126.7,15.1 126.7,14.3 L126.7,14.3 C126.7,13.5 127.3,12.9 128.1,12.9 L128.7,12.9 L133.1,12.9 C133.6,12.9 134.1,12.5 134.1,11.9 L134.1,2 C134.1,1.2 134.8,0.5 135.6,0.5 L135.6,0.5 C136.4,0.5 137.1,1.2 137.1,2 L137.1,12 C137.1,12.5 137.5,13 138.1,13 L144.3,13 C145.1,13 145.7,13.6 145.7,14.4 L145.7,14.4 C145.7,15.2 145.1,15.8 144.3,15.8 L138.1,15.8 C137.6,15.8 137.1,16.2 137.1,16.8 L137.1,45.7 C137.1,46.5 136.4,47.2 135.6,47.2 L135.6,47.2 C134.8,47.2 134.1,46.5 134.1,45.7 L134.1,21.8" id="XMLID_5_"></path>
                    <path d="M164.1,16.6 L164.1,2.2 C164.1,1.4 163.4,0.7 162.6,0.7 C161.8,0.7 161.1,1.4 161.1,2.2 L161.1,45.6 C161.1,46.4 161.8,47.1 162.6,47.1 C163.4,47.1 164.1,46.4 164.1,45.6 L164.1,29.4 C164.1,26.1 164.3,23.6 164.7,21.7 C165.1,19.8 166.1,18.2 167.8,17.1 C169.5,15.9 172,15.4 175.3,15.4 C178.3,15.4 180.4,15.6 181.8,16.2 C183.2,16.8 184.3,17.9 184.8,19.5 C185.3,21 185.5,23.5 185.5,27 L185.5,45.6 C185.5,46.4 186.2,47.1 187,47.1 C187.8,47.1 188.5,46.4 188.5,45.6 L188.5,29.4 L188.5,23.3 C188.5,13.8 182.8,12.4 177.6,12.4 C177.6,12.4 175.2,12.4 174.1,12.4 C172,12.5 166.5,12.7 164.1,16.6 Z" id="Shape"></path>
                    <path d="M208.4,5.7 L208.4,5.7 C209.4,5.7 210.2,4.9 210.2,3.9 L210.2,2.5 C210.2,1.5 209.4,0.7 208.4,0.7 L208.4,0.7 C207.4,0.7 206.6,1.5 206.6,2.5 L206.6,4 C206.6,4.9 207.4,5.7 208.4,5.7 Z" id="XMLID_4_"></path>
                    <path d="M208.4,48 L208.4,48 C209.2,48 209.9,47.3 209.9,46.5 L209.9,14 C209.9,13.2 209.2,12.5 208.4,12.5 L208.4,12.5 C207.6,12.5 206.9,13.2 206.9,14 L206.9,46.5 C206.8,47.3 207.6,48 208.4,48 Z" id="XMLID_3_"></path>
                    <path d="M241.5,12.4 C233.2,12.4 227.6,17.6 227.6,25.5 L227.6,34.2 C227.6,42.1 233.2,47.3 241.5,47.3 C249.8,47.3 255.4,42.1 255.4,34.2 L255.4,25.5 C255.4,17.6 249.8,12.4 241.5,12.4 Z M252.2,34.5 C252.2,41.8 246.5,44.4 241.5,44.4 C236.5,44.4 230.8,41.8 230.8,34.5 L230.8,25.1 C230.8,17.8 236.5,15.2 241.5,15.2 C246.5,15.2 252.2,17.8 252.2,25.1 L252.2,34.5 Z" id="XMLID_2_"></path>
                </g>
            </g>
        </g>
    </g>
</svg>
