<?xml version="1.0" encoding="UTF-8"?>
<svg width="17px" height="16px" viewBox="0 0 17 16" version="1.1" xmlns="http://www.w3.org/2000/svg" xmlns:xlink="http://www.w3.org/1999/xlink">
    <!-- Generator: Sketch 42 (36781) - http://www.bohemiancoding.com/sketch -->
    <title>Group 2</title>
    <desc>Created with Sketch.</desc>
    <defs></defs>
    <g id="Page-1" stroke="none" stroke-width="1" fill="none" fill-rule="evenodd">
        <g id="2" transform="translate(-83.000000, -121.000000)" fill="#FFFFFF">
            <g id="Menu-small">
                <g id="Select-chain" transform="translate(23.000000, 99.000000)">
                    <g id="List" transform="translate(32.000000, 0.000000)">
                        <g id="Group-2" transform="translate(28.000000, 22.000000)">
                            <path d="M13.5046844,8 C13.2259549,8 13,8.21505737 13,8.49047852 L13,12 C13,13.1019718 12.1026638,14 10.9999798,14 L4.00002024,14 C2.89750726,14 2,13.1030474 2,11.9999798 L2,5.00002024 C2,3.89859715 2.90022911,3 4.009763,3 L9.50979377,3 C9.78052719,3 10,2.78596497 10,2.49531555 L10,1.50468445 C10,1.22595492 9.77249032,1 9.50979377,1 L4.009763,1 C1.79523205,1 0,2.79445134 0,5.00002024 L0,11.9999798 C0,14.2091299 1.79445134,16 4.00002024,16 L10.9999798,16 C13.2091299,16 15,14.2046438 15,12 L15,8.49047852 C15,8.21959471 14.785965,8 14.4953156,8 L13.5046844,8 Z" id="Rectangle-5" fill-rule="nonzero"></path>
                            <path d="M7.35564399,0.93584977 C7.15922724,0.73943302 6.83774917,0.742456616 6.63999724,0.940208541 L3.99604173,3.58416406 C3.79721769,3.78298809 3.78738459,4.09551244 3.99290477,4.30103261 L4.69338674,5.00151458 C4.89047827,5.19860612 5.20324595,5.20538696 5.40786627,5.00076664 L7,3.40863291 L14.5978991,11.0065321 C14.7922196,11.2008525 15.1010931,11.2070348 15.3066133,11.0015146 L16.0070952,10.3010326 C16.2041868,10.1039411 16.201432,9.78163774 16.008317,9.58852283 L7.35564399,0.93584977 Z" id="Combined-Shape" transform="translate(9.998420, 5.972083) scale(1, -1) translate(-9.998420, -5.972083) "></path>
                        </g>
                    </g>
                </g>
            </g>
        </g>
    </g>
</svg>