<?xml version="1.0" encoding="UTF-8"?>
<svg width="70px" height="11px" viewBox="0 0 70 11" version="1.1" xmlns="http://www.w3.org/2000/svg" xmlns:xlink="http://www.w3.org/1999/xlink">
    <!-- Generator: Sketch 42 (36781) - http://www.bohemiancoding.com/sketch -->
    <title>text</title>
    <desc>Created with Sketch.</desc>
    <defs></defs>
    <g id="Page-1" stroke="none" stroke-width="1" fill="none" fill-rule="evenodd" opacity="0.5">
        <g id="2" transform="translate(-55.000000, -864.000000)" fill="#8399B8">
            <g id="Menu">
                <g id="EthStats" transform="translate(0.000000, 839.000000)">
                    <path d="M60.95,25.924 L60.95,27.744 L57.394,27.744 L57.394,29.858 L60.53,29.858 L60.53,31.678 L57.394,31.678 L57.394,33.96 L60.95,33.96 L60.95,35.78 L55,35.78 L55,25.924 L60.95,25.924 Z M65.926,33.75 L66.78,33.75 L66.78,35.78 L65.562,35.78 C64.6846623,35.78 64.0056691,35.5863353 63.525,35.199 C63.0443309,34.8116647 62.804,34.1466714 62.804,33.204 L62.804,29.956 L62.076,29.956 L62.076,27.968 L62.804,27.968 L62.804,26.064 L65.198,26.064 L65.198,27.968 L66.766,27.968 L66.766,29.956 L65.198,29.956 L65.198,33.204 C65.198,33.5680018 65.4406642,33.75 65.926,33.75 Z M70.412,25.42 L70.412,29.116 C70.9066691,28.2946626 71.6953279,27.884 72.778,27.884 C73.6740045,27.884 74.3996639,28.1826637 74.955,28.78 C75.5103361,29.3773363 75.788,30.1893282 75.788,31.216 L75.788,35.78 L73.408,35.78 L73.408,31.538 C73.408,31.0339975 73.2750013,30.6443347 73.009,30.369 C72.7429987,30.0936653 72.376669,29.956 71.91,29.956 C71.443331,29.956 71.0770013,30.0936653 70.811,30.369 C70.5449987,30.6443347 70.412,31.0339975 70.412,31.538 L70.412,35.78 L68.018,35.78 L68.018,25.42 L70.412,25.42 Z M79.28,27.59 C78.9813318,27.8326679 78.832,28.1849977 78.832,28.647 C78.832,29.1090023 79.0093315,29.4613321 79.364,29.704 C79.7186684,29.9466679 80.1479975,30.1239994 80.652,30.236 C81.1560025,30.3480006 81.6599975,30.4763326 82.164,30.621 C82.6680025,30.7656674 83.0973315,31.033998 83.452,31.426 C83.8066684,31.818002 83.984,32.3733297 83.984,33.092 C83.984,33.8106703 83.6806697,34.4546638 83.074,35.024 C82.4673303,35.5933362 81.6553384,35.878 80.638,35.878 C79.6206616,35.878 78.7946698,35.6400024 78.16,35.164 C77.5253301,34.6879976 77.208,34.0300042 77.208,33.19 L78.916,33.19 C78.9533335,33.6193355 79.1119986,33.9599987 79.392,34.212 C79.6720014,34.4640013 80.0826639,34.59 80.624,34.59 C81.165336,34.59 81.5923318,34.4500014 81.905,34.17 C82.2176682,33.8899986 82.374,33.5586686 82.374,33.176 C82.374,32.7933314 82.2783343,32.4946677 82.087,32.28 C81.8956657,32.0653323 81.6483348,31.9043339 81.345,31.797 C81.0416651,31.6896661 80.7080018,31.5940004 80.344,31.51 C79.9799982,31.4259996 79.6136685,31.3280006 79.245,31.216 C78.8763315,31.1039994 78.5403348,30.9593342 78.237,30.782 C77.9336651,30.6046658 77.6863343,30.3456684 77.495,30.005 C77.3036657,29.6643316 77.208,29.2466691 77.208,28.752 C77.208,27.9026624 77.5136636,27.2190026 78.125,26.701 C78.7363364,26.1829974 79.5296618,25.924 80.505,25.924 C81.4803382,25.924 82.2596637,26.1479978 82.843,26.596 C83.4263362,27.0440022 83.7506663,27.6926624 83.816,28.542 L82.052,28.542 C82.0146665,28.1686648 81.8560014,27.8560013 81.576,27.604 C81.2959986,27.3519987 80.9180024,27.226 80.442,27.226 C79.9659976,27.226 79.5786681,27.3473321 79.28,27.59 Z M89.212,29.368 L87.336,29.368 L87.336,33.638 C87.336,33.9273348 87.403666,34.1349994 87.539,34.261 C87.674334,34.3870006 87.9053317,34.45 88.232,34.45 L89.212,34.45 L89.212,35.78 L87.952,35.78 C86.4679926,35.78 85.726,35.0660071 85.726,33.638 L85.726,29.368 L84.816,29.368 L84.816,28.066 L85.726,28.066 L85.726,26.148 L87.336,26.148 L87.336,28.066 L89.212,28.066 L89.212,29.368 Z M90.8,34.779 C90.0999965,34.0276629 89.75,33.0663392 89.75,31.895 C89.75,30.7236608 90.0976632,29.7716703 90.793,29.039 C91.4883368,28.3063297 92.3539948,27.94 93.39,27.94 C93.9966697,27.94 94.5309977,28.0776653 94.993,28.353 C95.4550023,28.6283347 95.8119987,28.9899978 96.064,29.438 L96.064,28.066 L97.674,28.066 L97.674,35.78 L96.064,35.78 L96.064,34.338 C95.8026653,34.8140024 95.4433356,35.1943319 94.986,35.479 C94.5286644,35.7636681 93.9966697,35.906 93.39,35.906 C92.3633282,35.906 91.5000035,35.5303371 90.8,34.779 Z M96.064,31.916 C96.064,31.1226627 95.8330023,30.492669 95.371,30.026 C94.9089977,29.559331 94.3606698,29.326 93.726,29.326 C93.0913301,29.326 92.5430023,29.5546644 92.081,30.012 C91.6189977,30.4693356 91.388,31.0946627 91.388,31.888 C91.388,32.6813373 91.6189977,33.3183309 92.081,33.799 C92.5430023,34.2796691 93.0913301,34.52 93.726,34.52 C94.3606698,34.52 94.9089977,34.2843357 95.371,33.813 C95.8330023,33.3416643 96.064,32.7093373 96.064,31.916 Z M103.112,29.368 L101.236,29.368 L101.236,33.638 C101.236,33.9273348 101.303666,34.1349994 101.439,34.261 C101.574334,34.3870006 101.805332,34.45 102.132,34.45 L103.112,34.45 L103.112,35.78 L101.852,35.78 C100.367993,35.78 99.626,35.0660071 99.626,33.638 L99.626,29.368 L98.716,29.368 L98.716,28.066 L99.626,28.066 L99.626,26.148 L101.236,26.148 L101.236,28.066 L103.112,28.066 L103.112,29.368 Z M103.832,30.278 C103.832,29.6246634 104.107331,29.0716689 104.658,28.619 C105.208669,28.1663311 105.931995,27.94 106.828,27.94 C107.724004,27.94 108.435664,28.1616644 108.963,28.605 C109.490336,29.0483355 109.772666,29.6526628 109.81,30.418 L108.172,30.418 C108.144,30.0353314 108.011001,29.7366677 107.773,29.522 C107.534999,29.3073323 107.201335,29.2 106.772,29.2 C106.342664,29.2 106.006668,29.2956657 105.764,29.487 C105.521332,29.6783343 105.4,29.9303318 105.4,30.243 C105.4,30.5556682 105.553998,30.8006658 105.862,30.978 C106.170001,31.1553342 106.545664,31.2859996 106.989,31.37 C107.432336,31.4540004 107.875664,31.5566661 108.319,31.678 C108.762336,31.7993339 109.137998,32.0209984 109.446,32.343 C109.754001,32.6650016 109.908,33.096664 109.908,33.638 C109.908,34.3100034 109.625669,34.8559979 109.061,35.276 C108.49633,35.6960021 107.770671,35.906 106.884,35.906 C105.997329,35.906 105.278669,35.6913355 104.728,35.262 C104.177331,34.8326645 103.874,34.2213373 103.818,33.428 L105.47,33.428 C105.498,33.8106686 105.637999,34.1093323 105.89,34.324 C106.142001,34.5386677 106.484998,34.646 106.919,34.646 C107.353002,34.646 107.698332,34.5503343 107.955,34.359 C108.211668,34.1676657 108.34,33.9133349 108.34,33.596 C108.34,33.2786651 108.186001,33.0313342 107.878,32.854 C107.569998,32.6766658 107.194336,32.5436671 106.751,32.455 C106.307664,32.3663329 105.864336,32.2636673 105.421,32.147 C104.977664,32.0303327 104.602001,31.8180015 104.294,31.51 C103.985998,31.2019985 103.832,30.7913359 103.832,30.278 Z M111.846,35.78 C111.575332,35.78 111.349001,35.6866676 111.167,35.5 C110.984999,35.3133324 110.894,35.0870013 110.894,34.821 C110.894,34.5549987 110.984999,34.3286676 111.167,34.142 C111.349001,33.9553324 111.575332,33.862 111.846,33.862 C112.116668,33.862 112.345332,33.9553324 112.532,34.142 C112.718668,34.3286676 112.812,34.557332 112.812,34.828 C112.812,35.098668 112.718668,35.3249991 112.532,35.507 C112.345332,35.6890009 112.116668,35.78 111.846,35.78 Z M115.674,26.75 C115.477999,26.946001 115.237668,27.044 114.953,27.044 C114.668332,27.044 114.428001,26.946001 114.232,26.75 C114.035999,26.553999 113.938,26.3113348 113.938,26.022 C113.938,25.7326652 114.035999,25.490001 114.232,25.294 C114.428001,25.097999 114.668332,25 114.953,25 C115.237668,25 115.477999,25.097999 115.674,25.294 C115.870001,25.490001 115.968,25.7326652 115.968,26.022 C115.968,26.3113348 115.870001,26.553999 115.674,26.75 Z M114.148,35.78 L114.148,28.066 L115.744,28.066 L115.744,35.78 L114.148,35.78 Z M118.018,34.807 C117.289996,34.0743297 116.926,33.113006 116.926,31.923 C116.926,30.7329941 117.301663,29.7716703 118.053,29.039 C118.804337,28.3063297 119.739994,27.94 120.86,27.94 C121.980006,27.94 122.915663,28.3063297 123.667,29.039 C124.418337,29.7716703 124.794,30.7306607 124.794,31.916 C124.794,33.1013393 124.409004,34.062663 123.639,34.8 C122.868996,35.537337 121.921672,35.906 120.797,35.906 C119.672328,35.906 118.746004,35.5396703 118.018,34.807 Z M123.156,31.916 C123.156,31.0853292 122.929669,30.4390023 122.477,29.977 C122.024331,29.5149977 121.476003,29.284 120.832,29.284 C120.187997,29.284 119.646669,29.5149977 119.208,29.977 C118.769331,30.4390023 118.55,31.0876625 118.55,31.923 C118.55,32.7583375 118.764664,33.4069977 119.194,33.869 C119.623335,34.3310023 120.157663,34.562 120.797,34.562 C121.436336,34.562 121.989331,34.328669 122.456,33.862 C122.922669,33.395331 123.156,32.7466708 123.156,31.916 Z" id="text"></path>
                </g>
            </g>
        </g>
    </g>
</svg>